<svg xmlns="http://www.w3.org/2000/svg" viewBox="0 0 800 600">
  <rect width="800" height="600" fill="#0d1117" />
  <path d="M400 150 C261.9 150 150 261.9 150 400 C150 510.5 221.5 601.8 320.6 634.3 C333.1 636.6 337.7 628.9 337.7 622.3 C337.7 616.3 337.5 600.9 337.4 580.4 C267.8 595.5 253.1 546.9 253.1 546.9 C241.7 518 225.8 510.3 225.8 510.3 C203.5 495.1 227.5 495.4 227.5 495.4 C252.1 497.1 265 520.6 265 520.6 C286.8 558 322.2 547.2 336.2 541 C338.4 525.2 344.8 514.4 351.8 508.3 C296.3 502 237.9 480.6 237.9 387 C237.9 360.3 247.4 338.4 263.1 321.4 C260.6 315.1 252.3 290.2 265.5 256.7 C265.5 256.7 286.1 250.1 337.2 284.7 C356.8 279.2 378.1 276.5 399.3 276.4 C420.5 276.5 441.8 279.2 461.4 284.7 C512.4 250.1 533 256.7 533 256.7 C546.2 290.2 537.9 315.1 535.4 321.4 C551.1 338.4 560.5 360.3 560.5 387 C560.5 480.9 501.9 501.9 446.1 508 C454.9 515.6 462.7 530.5 462.7 553.4 C462.7 586.2 462.4 612.6 462.4 622.3 C462.4 629 466.9 636.8 479.6 634.3 C578.5 601.7 650 510.4 650 400 C650 261.9 538.1 150 400 150 Z" fill="#58a6ff" opacity="0.8" />
</svg>
